<?xml version="1.0" encoding="UTF-8" standalone="no"?>
<!DOCTYPE svg PUBLIC "-//W3C//DTD SVG 1.1//EN" "http://www.w3.org/Graphics/SVG/1.1/DTD/svg11.dtd">
<svg width="100%" height="100%" viewBox="0 0 26 24" version="1.1" xmlns="http://www.w3.org/2000/svg" xmlns:xlink="http://www.w3.org/1999/xlink" xml:space="preserve" xmlns:serif="http://www.serif.com/" style="fill-rule:evenodd;clip-rule:evenodd;stroke-linecap:round;stroke-linejoin:round;">
    <g id="gbody_x5F_protein">
        <g>
            <path id="stomach_0_Layer0_0_FILL" d="M14.6,2.829C14.3,2.329 13.8,1.929 13.3,1.529C12.2,0.729 11,0.629 9.8,1.029C9.1,1.229 8.5,1.529 8.1,1.929C7.8,2.229 7.4,2.429 7.2,2.829C7,3.129 6.7,3.329 6.4,3.329C4.2,3.829 2.5,5.029 1.4,6.929C1.2,7.229 1,7.629 0.9,8.129C0.8,8.729 0.8,9.229 0.8,9.829C0.9,10.129 0.9,10.529 1,10.829C1.3,11.729 1.3,12.529 1,13.329C0.9,13.629 0.9,14.029 1,14.429C1.1,14.729 1.3,14.929 1.5,15.229C2.3,16.129 3.3,16.729 4.4,16.929C4.7,16.929 4.9,17.029 5.2,17.029C5.7,17.129 6.1,16.929 6.5,16.729C6.7,16.629 7,16.429 7.2,16.429C7.3,16.329 7.4,16.329 7.5,16.329C7.6,16.229 7.8,16.229 8,16.329L8.1,16.429L8.7,16.729C8.8,17.129 8.8,17.629 8.6,18.029C9,21.229 10.4,22.529 12.8,21.929C13.5,21.929 14.1,21.629 14.6,20.929C15.1,20.229 15.3,19.429 15.3,18.429C15.4,18.329 15.4,18.229 15.4,18.129C15.5,17.629 15.4,17.229 15.3,16.729C15.2,16.529 15.6,16.029 16.5,15.229L18,15.529C19.1,15.629 20.1,15.629 21,15.429C21.9,15.229 22.7,14.429 23.5,13.029C23.9,12.329 24.2,11.729 24.4,11.029C24.5,10.529 24.5,10.129 24.5,9.429C24.4,7.929 24,6.929 23.3,6.629C22.6,6.229 22.2,5.829 22,5.329C21.8,4.829 21.4,4.629 20.8,4.729C20.2,4.829 19.8,4.929 19.6,5.129C19.4,5.329 19.2,5.329 19.1,5.229C18.6,4.929 18.1,4.729 17.6,4.729C17,4.629 16.4,4.729 15.8,4.929C15.6,5.029 15.5,5.029 15.3,5.229C15.1,5.129 15,4.929 15,4.329C15,3.829 14.9,3.329 14.6,2.829Z" style="fill:rgb(204,204,204);fill-rule:nonzero;"/>
            <path id="stomach_0_Layer0_0_1_STROKES" d="M8.9,16.829C9,17.229 9,17.729 8.8,18.129C9.2,21.329 10.6,22.629 13,22.029C13.7,22.029 14.3,21.729 14.8,21.029C15.3,20.329 15.5,19.529 15.5,18.529C15.5,18.429 15.6,18.329 15.6,18.229C15.7,17.729 15.6,17.329 15.5,16.829C15.4,16.629 15.8,16.129 16.7,15.329L18.2,15.629C19.3,15.729 20.3,15.729 21.2,15.529C22.1,15.329 22.9,14.529 23.7,13.129C24.1,12.429 24.4,11.829 24.6,11.129C24.7,10.629 24.7,10.229 24.7,9.529C24.6,8.029 24.2,7.029 23.4,6.729C22.7,6.329 22.3,5.929 22.1,5.429C21.9,4.929 21.5,4.729 20.9,4.829C20.3,4.929 19.9,5.029 19.7,5.229C19.5,5.429 19.3,5.429 19.2,5.329C18.7,5.029 18.2,4.829 17.7,4.829C17.1,4.729 16.5,4.829 15.9,5.029C15.7,5.129 15.6,5.129 15.4,5.329C15.2,5.229 15.1,5.029 15.1,4.429C15.2,3.929 15,3.429 14.8,3.029C14.5,2.529 14,2.129 13.5,1.729C12.4,0.929 11.2,0.829 10,1.229C9.3,1.429 8.7,1.729 8.3,2.129C8,2.429 7.6,2.629 7.4,3.029C7.2,3.329 6.9,3.529 6.6,3.529C4.4,4.029 2.7,5.229 1.6,7.129C1.4,7.429 1.2,7.829 1.1,8.329C1,8.929 1,9.429 1,10.029C1.1,10.329 1.1,10.729 1.2,11.029C1.5,11.929 1.5,12.729 1.2,13.529C1.1,13.829 1.1,14.229 1.2,14.629C1.3,14.929 1.5,15.129 1.7,15.429C2.5,16.329 3.5,16.929 4.6,17.129C4.9,17.129 5.1,17.229 5.4,17.229C5.9,17.329 6.3,17.129 6.7,16.929C6.9,16.829 7.2,16.629 7.4,16.629C7.5,16.529 7.6,16.529 7.7,16.529C7.8,16.429 8,16.429 8.2,16.529L8.3,16.629" style="fill:none;stroke:rgb(204,102,204);stroke-width:2px;"/>
        </g>
        <path id="stomach_0_Layer0_1_1_STROKES" d="M6.5,11.629C6.2,13.529 6.9,14.229 8.6,13.729C10.3,13.229 11.1,13.529 11.2,14.829C11.2,15.929 11.6,16.429 12.3,16.229C13,16.029 13.5,15.529 13.6,14.729C13.7,13.929 13.8,13.229 13.8,12.629C13.8,12.029 14.4,11.929 15.7,12.229C17,12.529 18,12.729 19,12.529C20,12.329 20.6,11.929 20.9,11.029C21.2,10.129 20.7,9.429 19.6,8.929C18.5,8.429 17.6,8.229 17,8.229C16.4,8.329 15.5,8.629 14.1,9.129C13.2,9.429 12.8,9.029 12.8,8.229C12.8,7.829 12.7,7.529 12.5,7.129C12.3,6.829 12,6.729 11.7,6.729C10.3,6.629 9.2,7.029 8.5,8.129L8.5,8.229C8.6,8.329 8.6,8.529 8.6,8.829C8.1,8.829 8.1,8.629 8.5,8.229C8.2,8.029 8,7.829 7.7,7.729C7.4,7.629 6.8,7.629 5.9,7.629C5,7.729 4.4,8.129 4,8.829C3.7,9.529 3.8,10.329 4.1,11.129C4.2,11.829 4.8,12.029 5.7,11.829" style="fill:none;stroke:rgb(223,223,223);stroke-width:1.5px;"/>
    </g>
</svg>
